<svg xmlns="http://www.w3.org/2000/svg" viewBox="0 0 512 512" fill="#fff"><path d="M375.405 499.121l-40.474-137.969-.007-.025-14.443-49.232-.004-.014-19.958-68.033-.011-.038-31.754-108.244c13.978-5.193 23.965-18.664 23.965-34.427 0-20.244-16.47-36.713-36.713-36.713s-36.713 16.47-36.713 36.713c0 15.763 9.987 29.235 23.965 34.427l-66.17 225.563-.007.025-40.474 137.968c-1.562 5.324 1.488 10.907 6.812 12.47a10.046 10.046 0 0012.47-6.813l6.154-20.978 93.964-62.067 93.964 62.067 6.154 20.978c1.285 4.381 5.292 7.222 9.638 7.222.936 0 1.889-.132 2.832-.409 5.322-1.563 8.372-7.146 6.81-12.471zM239.387 101.137c0-9.163 7.455-16.618 16.618-16.618s16.618 7.455 16.618 16.618-7.455 16.618-16.618 16.618-16.618-7.454-16.618-16.618zm16.618 62.361l21.492 73.265h-42.985l21.493-73.265zm-27.388 93.36h54.776l14.071 47.968h-82.918l14.071-47.968zm-57.812 197.07l21.742-74.112 45.229 29.875-66.971 44.237zm27.66-94.286l10.186-34.721h94.709l10.186 34.721-57.541 38.008-57.54-38.008zm75.77 50.05l45.229-29.875 21.742 74.112-66.971-44.237z"/><path d="M208.24 53.373c3.924-3.924 3.924-10.286 0-14.209-3.924-3.924-10.285-3.924-14.21 0-34.169 34.172-34.169 89.775.001 123.947a10.016 10.016 0 007.105 2.943 10.02 10.02 0 007.104-2.943c3.924-3.924 3.924-10.286 0-14.209-26.338-26.337-26.338-69.192 0-95.529zM317.979 39.165c-3.924-3.924-10.284-3.924-14.21 0-3.924 3.924-3.924 10.286 0 14.209 26.337 26.337 26.337 69.192 0 95.529-3.923 3.922-3.923 10.285.001 14.208 1.962 1.962 4.533 2.943 7.105 2.943s5.142-.982 7.105-2.943c34.17-34.172 34.17-89.775-.001-123.946z"/><path d="M172.02 17.152c3.924-3.924 3.924-10.286 0-14.209-3.924-3.924-10.285-3.924-14.21 0-26.228 26.229-40.673 61.101-40.673 98.195 0 37.093 14.445 71.966 40.673 98.195 1.963 1.962 4.533 2.943 7.106 2.943s5.142-.982 7.105-2.943c3.924-3.924 3.924-10.286 0-14.209-46.312-46.311-46.312-121.662-.001-167.972zM374.322 28.38c-2.91-4.724-9.1-6.196-13.825-3.286-4.723 2.911-6.194 9.1-3.285 13.824 28.95 46.994 21.867 107.116-17.222 146.204-3.924 3.924-3.924 10.286 0 14.21a10.016 10.016 0 007.105 2.943 10.02 10.02 0 007.105-2.943c22.222-22.223 36.365-51.631 39.823-82.806 3.403-30.692-3.593-61.997-19.701-88.146zM347.095 0c-12.93 0-12.951 20.095 0 20.095 12.93 0 12.951-20.095 0-20.095z"/></svg>