<svg xmlns="http://www.w3.org/2000/svg" xmlns:xlink="http://www.w3.org/1999/xlink" width="31" height="31" viewBox="0 0 31 31">
  <path d="M1149.5,3634a15.5,15.5,0,1,0,15.5,15.5A15.5,15.5,0,0,0,1149.5,3634Zm0,2.58a12.915,12.915,0,1,1-12.92,12.92A12.94,12.94,0,0,1,1149.5,3636.58Zm3.48,19.23a0.749,0.749,0,0,0,1.18-.45c0.56-2.63,1.92-9.31,2.43-11.71a0.5,0.5,0,0,0-.16-0.49,0.543,0.543,0,0,0-.52-0.09c-2.71,1-11.05,4.13-14.46,5.39a0.556,0.556,0,0,0-.35.52,0.535,0.535,0,0,0,.39.49c1.53,0.46,3.53,1.1,3.53,1.1s0.94,2.83,1.43,4.27a0.558,0.558,0,0,0,.91.24c0.79-.74,2-1.89,2-1.89S1151.67,3654.88,1152.98,3655.81Zm-7.11-5.6,1.08,3.58,0.24-2.27s4.19-3.78,6.58-5.93a0.173,0.173,0,0,0,.02-0.24,0.177,0.177,0,0,0-.24-0.05Z" transform="translate(-1134 -3634)"/>
</svg>
