<svg xmlns="http://www.w3.org/2000/svg" xmlns:xlink="http://www.w3.org/1999/xlink" width="31" height="31" viewBox="0 0 31 31">
  <path d="M1104.25,3654.66a0.521,0.521,0,0,0,.55-0.59c-0.02-1.24.46-1.91,1.33-1.04,0.96,0.97,1.16,1.63,2.33,1.63h2.06c0.52,0,.73-0.17.73-0.43,0-.56-0.92-1.54-1.7-2.26-1.09-1.02-1.13-1.04-.2-2.26,1.17-1.51,2.69-3.44,1.34-3.44h-2.57c-0.5,0-.53.28-0.71,0.7-0.64,1.51-1.87,3.48-2.33,3.18-0.49-.32-0.26-1.56-0.23-3.4a0.79,0.79,0,0,0-.73-1,5.443,5.443,0,0,0-1.17-.13c-1.47,0-2.48.62-1.91,0.73,1.02,0.18.92,2.38,0.68,3.33-0.41,1.65-1.96-1.31-2.6-2.78a0.708,0.708,0,0,0-.76-0.63h-2.1c-0.32,0-.51.1-0.51,0.33a22.356,22.356,0,0,0,3.73,6.31A5.51,5.51,0,0,0,1104.25,3654.66ZM1103.5,3634a15.5,15.5,0,1,0,15.5,15.5A15.5,15.5,0,0,0,1103.5,3634Zm0,2.58a12.915,12.915,0,1,1-12.92,12.92A12.94,12.94,0,0,1,1103.5,3636.58Z" transform="translate(-1088 -3634)"/>
</svg>
