<svg xmlns="http://www.w3.org/2000/svg" xmlns:xlink="http://www.w3.org/1999/xlink" width="31" height="31" viewBox="0 0 31 31">                                                                   
  <path d="M1019.9,3643.34a6.609,6.609,0,0,1-1.83.5,3.221,3.221,0,0,0,1.4-1.76,6.5,6.5,0,0,1-2.02.77,3.18,3.18,0,0,0-5.42,2.9,9.05,9.05,0,0,1-6.56-3.32,3.176,3.176,0,0,0,.99,4.24,3.189,3.189,0,0,1-1.44-.39,3.165,3.165,0,0,0,2.55,3.15,3.161,3.161,0,0,1-1.44.06,3.2,3.2,0,0,0,2.97,2.21,6.4,6.4,0,0,1-4.7,1.31,8.893,8.893,0,0,0,4.87,1.43,8.989,8.989,0,0,0,9.04-9.46A6.7,6.7,0,0,0,1019.9,3643.34Zm-8.4-11.34a15.5,15.5,0,1,0,15.5,15.5A15.5,15.5,0,0,0,1011.5,3632Zm0,2.58a12.915,12.915,0,1,1-12.917,12.92A12.94,12.94,0,0,1,1011.5,3634.58Z" transform="translate(-996 -3632)"/>
</svg>
