<svg xmlns="http://www.w3.org/2000/svg" xmlns:xlink="http://www.w3.org/1999/xlink" width="31" height="31" viewBox="0 0 31 31">
  <path d="M1063.31,3645.69a0.6,0.6,0,0,1-.59.59h-1.41a0.591,0.591,0,0,1-.59-0.59v-1.41a0.585,0.585,0,0,1,.59-0.59h1.41a0.591,0.591,0,0,1,.59.59v1.41Zm0,9.02a0.6,0.6,0,0,1-.59.6h-10.44a0.593,0.593,0,0,1-.59-0.6v-6.5h1.22a6.189,6.189,0,0,0-.13.62,4.913,4.913,0,0,0-.05.67,4.77,4.77,0,0,0,9.54,0,4.913,4.913,0,0,0-.05-0.67,6.189,6.189,0,0,0-.13-0.62h1.22v6.5Zm-5.81-8.19a2.98,2.98,0,1,1-2.98,2.98A2.975,2.975,0,0,1,1057.5,3646.52Zm5.96-4.77h-11.92a1.788,1.788,0,0,0-1.79,1.79v11.92a1.788,1.788,0,0,0,1.79,1.79h11.92a1.788,1.788,0,0,0,1.79-1.79v-11.92A1.788,1.788,0,0,0,1063.46,3641.75Zm-5.96-7.75a15.5,15.5,0,1,0,15.5,15.5A15.5,15.5,0,0,0,1057.5,3634Zm0,2.58a12.915,12.915,0,1,1-12.92,12.92A12.94,12.94,0,0,1,1057.5,3636.58Z" transform="translate(-1042 -3634)"/>
</svg>
