<svg xmlns="http://www.w3.org/2000/svg" xmlns:xlink="http://www.w3.org/1999/xlink" width="31" height="31" viewBox="0 0 31 31">                                                                                                
  <path d="M962.916,3644.91h-2.583v2.59h2.583v7.75h3.875v-7.75h2.352l0.232-2.59h-2.584v-1.07c0-.62.124-0.86,0.721-0.86h1.863v-3.23h-3.106c-2.322,0-3.353,1.02-3.353,2.98v2.18ZM965.5,3632a15.5,15.5,0,1,0,15.5,15.5A15.5,15.5,0,0,0,965.5,3632Zm0,2.58a12.915,12.915,0,1,1-12.917,12.92A12.935,12.935,0,0,1,965.5,3634.58Z" transform="translate(-950 -3632)"/>
</svg>
