<svg xmlns="http://www.w3.org/2000/svg" xmlns:xlink="http://www.w3.org/1999/xlink"><symbol id="control-next" viewBox="0 0 155 5">
  <path d="M590,2726v-1H739.038l-3.974-2,9.936,2.5-9.936,2.5,3.974-2H590Z" transform="translate(-590 -2723)"/>
</symbol><symbol id="control-prev" viewBox="0 0 52 7">
  <path d="M554,2725v1H508.054l2.7,2L504,2725.5l6.757-2.5-2.7,2H554Z" transform="translate(-503 -2722)"/>
</symbol><symbol id="icon-facebook" viewBox="0 0 31 31">                                                                                                
  <path d="M962.916,3644.91h-2.583v2.59h2.583v7.75h3.875v-7.75h2.352l0.232-2.59h-2.584v-1.07c0-.62.124-0.86,0.721-0.86h1.863v-3.23h-3.106c-2.322,0-3.353,1.02-3.353,2.98v2.18ZM965.5,3632a15.5,15.5,0,1,0,15.5,15.5A15.5,15.5,0,0,0,965.5,3632Zm0,2.58a12.915,12.915,0,1,1-12.917,12.92A12.935,12.935,0,0,1,965.5,3634.58Z" transform="translate(-950 -3632)"/>
</symbol><symbol id="icon-instagram" viewBox="0 0 31 31">
  <path d="M1063.31,3645.69a0.6,0.6,0,0,1-.59.59h-1.41a0.591,0.591,0,0,1-.59-0.59v-1.41a0.585,0.585,0,0,1,.59-0.59h1.41a0.591,0.591,0,0,1,.59.59v1.41Zm0,9.02a0.6,0.6,0,0,1-.59.6h-10.44a0.593,0.593,0,0,1-.59-0.6v-6.5h1.22a6.189,6.189,0,0,0-.13.62,4.913,4.913,0,0,0-.05.67,4.77,4.77,0,0,0,9.54,0,4.913,4.913,0,0,0-.05-0.67,6.189,6.189,0,0,0-.13-0.62h1.22v6.5Zm-5.81-8.19a2.98,2.98,0,1,1-2.98,2.98A2.975,2.975,0,0,1,1057.5,3646.52Zm5.96-4.77h-11.92a1.788,1.788,0,0,0-1.79,1.79v11.92a1.788,1.788,0,0,0,1.79,1.79h11.92a1.788,1.788,0,0,0,1.79-1.79v-11.92A1.788,1.788,0,0,0,1063.46,3641.75Zm-5.96-7.75a15.5,15.5,0,1,0,15.5,15.5A15.5,15.5,0,0,0,1057.5,3634Zm0,2.58a12.915,12.915,0,1,1-12.92,12.92A12.94,12.94,0,0,1,1057.5,3636.58Z" transform="translate(-1042 -3634)"/>
</symbol><symbol id="icon-telegram" viewBox="0 0 31 31">
  <path d="M1149.5,3634a15.5,15.5,0,1,0,15.5,15.5A15.5,15.5,0,0,0,1149.5,3634Zm0,2.58a12.915,12.915,0,1,1-12.92,12.92A12.94,12.94,0,0,1,1149.5,3636.58Zm3.48,19.23a0.749,0.749,0,0,0,1.18-.45c0.56-2.63,1.92-9.31,2.43-11.71a0.5,0.5,0,0,0-.16-0.49,0.543,0.543,0,0,0-.52-0.09c-2.71,1-11.05,4.13-14.46,5.39a0.556,0.556,0,0,0-.35.52,0.535,0.535,0,0,0,.39.49c1.53,0.46,3.53,1.1,3.53,1.1s0.94,2.83,1.43,4.27a0.558,0.558,0,0,0,.91.24c0.79-.74,2-1.89,2-1.89S1151.67,3654.88,1152.98,3655.81Zm-7.11-5.6,1.08,3.58,0.24-2.27s4.19-3.78,6.58-5.93a0.173,0.173,0,0,0,.02-0.24,0.177,0.177,0,0,0-.24-0.05Z" transform="translate(-1134 -3634)"/>
</symbol><symbol id="icon-twitter" viewBox="0 0 31 31">                                                                   
  <path d="M1019.9,3643.34a6.609,6.609,0,0,1-1.83.5,3.221,3.221,0,0,0,1.4-1.76,6.5,6.5,0,0,1-2.02.77,3.18,3.18,0,0,0-5.42,2.9,9.05,9.05,0,0,1-6.56-3.32,3.176,3.176,0,0,0,.99,4.24,3.189,3.189,0,0,1-1.44-.39,3.165,3.165,0,0,0,2.55,3.15,3.161,3.161,0,0,1-1.44.06,3.2,3.2,0,0,0,2.97,2.21,6.4,6.4,0,0,1-4.7,1.31,8.893,8.893,0,0,0,4.87,1.43,8.989,8.989,0,0,0,9.04-9.46A6.7,6.7,0,0,0,1019.9,3643.34Zm-8.4-11.34a15.5,15.5,0,1,0,15.5,15.5A15.5,15.5,0,0,0,1011.5,3632Zm0,2.58a12.915,12.915,0,1,1-12.917,12.92A12.94,12.94,0,0,1,1011.5,3634.58Z" transform="translate(-996 -3632)"/>
</symbol><symbol id="icon-vk" viewBox="0 0 31 31">
  <path d="M1104.25,3654.66a0.521,0.521,0,0,0,.55-0.59c-0.02-1.24.46-1.91,1.33-1.04,0.96,0.97,1.16,1.63,2.33,1.63h2.06c0.52,0,.73-0.17.73-0.43,0-.56-0.92-1.54-1.7-2.26-1.09-1.02-1.13-1.04-.2-2.26,1.17-1.51,2.69-3.44,1.34-3.44h-2.57c-0.5,0-.53.28-0.71,0.7-0.64,1.51-1.87,3.48-2.33,3.18-0.49-.32-0.26-1.56-0.23-3.4a0.79,0.79,0,0,0-.73-1,5.443,5.443,0,0,0-1.17-.13c-1.47,0-2.48.62-1.91,0.73,1.02,0.18.92,2.38,0.68,3.33-0.41,1.65-1.96-1.31-2.6-2.78a0.708,0.708,0,0,0-.76-0.63h-2.1c-0.32,0-.51.1-0.51,0.33a22.356,22.356,0,0,0,3.73,6.31A5.51,5.51,0,0,0,1104.25,3654.66ZM1103.5,3634a15.5,15.5,0,1,0,15.5,15.5A15.5,15.5,0,0,0,1103.5,3634Zm0,2.58a12.915,12.915,0,1,1-12.92,12.92A12.94,12.94,0,0,1,1103.5,3636.58Z" transform="translate(-1088 -3634)"/>
</symbol></svg>